#!OML:ASF H:\Male1\Project 1\Capture day 1\Session 1\Male1.ASF
:FULLY-SPECIFIED
:DEGREES
710
root 10.487 15.3762 4.98116 172.478 -4.40156 -180.399
lowerback 14.0624 1.99262 4.55004
upperback 6.36431 2.40399 1.16613
thorax -0.998383 0.910469 -1.6839
lowerneck -0.402401 5.91215 11.2445
upperneck -1.4825 7.81489 -8.45324
head 0.406027 3.87135 -4.25134
rclavicle 1.25234e-014 2.70347e-014
rhumerus -16.3927 16.2742 -88.6899
rradius 41.6051
rwrist -26.067
rhand -19.6837 6.1134
rfingers 7.12502
rthumb 6.64514 -23.7623
lclavicle 1.25234e-014 2.70347e-014
lhumerus -12.026 5.87187 95.0759
lradius 37.3314
lwrist -1.51435
lhand -14.2345 3.91463
lfingers 7.12502
lthumb 11.9029 33.5563
rfemur 3.06466 11.8665 28.9965
rtibia 17.2996
rfoot -37.0158 -33.7153
rtoes 4.96707
lfemur -20.619 -15.7956 -22.0936
ltibia 40.1708
lfoot -15.5174 18.0788
ltoes -19.5868
711
root 10.4727 15.3813 4.9852 172.621 -4.49941 -180.505
lowerback 14.0642 2.03982 4.43639
upperback 6.34045 2.45979 1.11935
thorax -1.02549 0.93936 -1.6774
lowerneck -0.43732 5.86116 11.1435
upperneck -1.40171 7.74684 -8.37472
head 0.42158 3.83828 -4.21119
rclavicle 2.78299e-014 -2.38542e-015
rhumerus -16.8051 16.3011 -88.794
rradius 42.2368
rwrist -26.1688
rhand -19.6382 6.3554
rfingers 7.12502
rthumb 6.68906 -23.519
lclavicle 2.78299e-014 -2.38542e-015
lhumerus -12.2539 5.73476 95.3432
lradius 38.1766
lwrist -1.43218
lhand -14.3193 3.61696
lfingers 7.12502
lthumb 11.8212 33.2633
rfemur 2.87435 12.126 28.8272
rtibia 17.4116
rfoot -37.4537 -33.7688
rtoes 5.56409
lfemur -20.5224 -16.1115 -21.809
ltibia 40.1917
lfoot -15.5364 18.004
ltoes -19.0454
712
root 10.4579 15.3879 4.98746 172.797 -4.53196 -180.604
lowerback 14.0153 2.11044 4.31602
upperback 6.31384 2.5452 1.07482
thorax -1.02727 0.984277 -1.66734
lowerneck -0.42329 5.8125 11.087
upperneck -1.34339 7.69182 -7.97212
head 0.46047 3.81429 -4.5431
rclavicle 1.21259e-014 2.78299e-014
rhumerus -17.2607 16.2261 -88.8646
rradius 42.7282
rwrist -26.2989
rhand -19.7016 6.55334
rfingers 7.12502
rthumb 6.62789 -23.3229
lclavicle 1.21259e-014 2.78299e-014
lhumerus -12.5644 5.68157 95.5228
lradius 38.9047
lwrist -1.37556
lhand -14.4423 3.3548
lfingers 7.12502
lthumb 11.7026 33.0079
rfemur 2.67951 12.3538 28.6482
rtibia 17.4709
rfoot -37.7368 -33.837
rtoes 5.77894
lfemur -20.4359 -16.3438 -21.4985
ltibia 40.2141
lfoot -15.6021 17.8411
ltoes -18.3597
713
root 10.441 15.3954 4.98816 172.995 -4.5554 -180.687
lowerback 13.9218 2.18064 4.22572
upperback 6.28275 2.63384 1.02939
thorax -1.00815 1.03267 -1.67398
lowerneck -0.421203 5.77061 11.0094
upperneck -1.29633 7.63812 -7.91882
head 0.463795 3.78871 -4.50967
rclavicle -5.00937e-014 3.97569e-014
rhumerus -17.7519 16.0373 -88.9048
rradius 43.0478
rwrist -26.4402
rhand -19.8756 6.72465
rfingers 7.12502
rthumb 6.45994 -23.1568
lclavicle -5.00937e-014 3.97569e-014
lhumerus -12.9511 5.68047 95.6039
lradius 39.4922
lwrist -1.34097
lhand -14.565 3.12957
lfingers 7.12502
lthumb 11.5843 32.7894
rfemur 2.48098 12.4877 28.4561
rtibia 17.4868
rfoot -37.8698 -33.9031
rtoes 5.6003
lfemur -20.3616 -16.5117 -21.1754
ltibia 40.2455
lfoot -15.6436 17.6473
ltoes -17.9201
714
root 10.4222 15.4022 4.98824 173.17 -4.60715 -180.737
lowerback 13.8445 2.23583 4.17954
upperback 6.25447 2.70747 0.991597
thorax -0.993429 1.07349 -1.69556
lowerneck -0.384879 5.72935 10.9598
upperneck -1.28499 7.58743 -7.89708
head 0.452394 3.76463 -4.49486
rclavicle 3.45885e-014 -4.77083e-014
rhumerus -18.2139 15.5997 -88.9196
rradius 43.0839
rwrist -26.4565
rhand -20.095 6.90197
rfingers 7.12502
rthumb 6.24815 -22.9859
lclavicle 3.45885e-014 -4.77083e-014
lhumerus -13.4016 5.71934 95.5785
lradius 39.9246
lwrist -1.33629
lhand -14.6454 2.92696
lfingers 7.12502
lthumb 11.5067 32.5911
rfemur 2.31717 12.5317 28.2801
rtibia 17.4726
rfoot -37.9114 -33.9764
rtoes 5.12156
lfemur -20.2661 -16.6517 -20.8434
ltibia 40.2915
lfoot -15.6411 17.4707
ltoes -17.8057
